<svg xmlns="http://www.w3.org/2000/svg" viewBox="0 0 128 128"><circle cx="64" cy="64" r="64" fill="#303E39"/><g transform="translate(14.0,34.7) scale(0.8150)" fill="#EEEFE3"><path  d="M115.1,9.3c-.2-.2-.4-.4-.6-.6-2.9-2.9-6.7-5.1-10.9-6.5C99.6.8,95.3,0,91.3,0h-33.5v24.4h1.6c1.4,0,5.7-.5,8-2.4,4.3-3.7,8.1-6.9,9.6-7.9l.3-.2c3.8-2.3,7.6-3.6,12.6-3.6h1.6c5.2,0,9.7,1.9,13.4,5.7s5.5,8.2,5.5,13.4,0,0,0,0c0,0,0,0,0,0,0,5.2-1.8,9.7-5.5,13.4s-8.2,5.6-13.4,5.7h-1.6c-4.9,0-8.8-1.3-12.6-3.6l-.3-.2c-1.4-1-5.3-4.1-9.6-7.9-2.3-2-6.6-2.4-8-2.4h-1.6v37.5h26.9v-12.8h6.9c5.8,0,12.1-1.8,17.3-4.9,2-1.2,3.9-2.6,5.5-4.3.2-.2.4-.4.6-.6,5.3-5.6,7.6-12.3,7.6-20.1s-2.3-14.4-7.6-20Z"/><path  d="M54,24.4V0H17.9C6.1,0,0,7.5,0,15.9v4s0,6.6,0,6.6h34.1v-2h19.9Z"/><path  d="M34.1,32.6h-16.3C6.1,32.5,0,40.1,0,48.4v4s0,19.5,0,19.5h26.9v-15h27.1v-22.5h-19.9v-1.9Z"/><path  d="M75.5,26.6c-.5,0-.9.4-.9.9s.4.9.9.9.9-.4.9-.9-.4-.9-.9-.9Z"/><path  d="M79.4,28.4c.5,0,.9-.4.9-.9s-.4-.9-.9-.9-.9.4-.9.9.4.9.9.9Z"/><path  d="M83.3,28.4c.5,0,.9-.4.9-.9s-.4-.9-.9-.9-.9.4-.9.9.4.9.9.9Z"/><path  d="M87.2,28.4c.5,0,.9-.4.9-.9s-.4-.9-.9-.9-.9.4-.9.9.4.9.9.9Z"/><path  d="M90.8,28.4c.5,0,.9-.4.9-.9s-.4-.9-.9-.9-.9.4-.9.9.4.9.9.9Z"/><path  d="M94.4,28.4c.5,0,.9-.4.9-.9s-.4-.9-.9-.9-.9.4-.9.9.4.9.9.9Z"/><path  d="M98.2,28.4c.5,0,.9-.4.9-.9s-.4-.9-.9-.9-.9.4-.9.9.4.9.9.9Z"/><path  d="M102.2,28.4c.5,0,.9-.4.9-.9s-.4-.9-.9-.9-.9.4-.9.9.4.9.9.9Z"/><path  d="M79.6,24.5c.5,0,.9-.4.9-.9s-.4-.9-.9-.9-.9.4-.9.9.4.9.9.9Z"/><path  d="M83.5,24.5c.5,0,.9-.4.9-.9s-.4-.9-.9-.9-.9.4-.9.9.4.9.9.9Z"/><path  d="M87.4,24.5c.5,0,.9-.4.9-.9s-.4-.9-.9-.9-.9.4-.9.9.4.9.9.9Z"/><path  d="M91,24.5c.5,0,.9-.4.9-.9s-.4-.9-.9-.9-.9.4-.9.9.4.9.9.9Z"/><path  d="M94.6,24.5c.5,0,.9-.4.9-.9s-.4-.9-.9-.9-.9.4-.9.9.4.9.9.9Z"/><path  d="M98.4,24.5c.5,0,.9-.4.9-.9s-.4-.9-.9-.9-.9.4-.9.9.4.9.9.9Z"/><path  d="M83.7,20.6c.5,0,.9-.4.9-.9s-.4-.9-.9-.9-.9.4-.9.9.4.9.9.9Z"/><path  d="M91.2,20.6c.5,0,.9-.4.9-.9s-.4-.9-.9-.9-.9.4-.9.9.4.9.9.9Z"/><path  d="M94.9,20.6c.5,0,.9-.4.9-.9s-.4-.9-.9-.9-.9.4-.9.9.4.9.9.9Z"/><path  d="M83.9,15c-.5,0-.9.4-.9.9s.4.9.9.9.9-.4.9-.9-.4-.9-.9-.9Z"/><path  d="M87.8,15c-.5,0-.9.4-.9.9s.4.9.9.9.9-.4.9-.9-.4-.9-.9-.9Z"/><path  d="M91.5,15c-.5,0-.9.4-.9.9s.4.9.9.9.9-.4.9-.9-.4-.9-.9-.9Z"/><path  d="M95.1,15c-.5,0-.9.4-.9.9s.4.9.9.9.9-.4.9-.9-.4-.9-.9-.9Z"/><path  d="M74.7,31.3c0,.5.4.9.9.9s.9-.4.9-.9-.4-.9-.9-.9-.9.4-.9.9Z"/><path  d="M80.4,31.3c0-.5-.4-.9-.9-.9s-.9.4-.9.9.4.9.9.9.9-.4.9-.9Z"/><path  d="M84.3,31.3c0-.5-.4-.9-.9-.9s-.9.4-.9.9.4.9.9.9.9-.4.9-.9Z"/><path  d="M88.2,31.3c0-.5-.4-.9-.9-.9s-.9.4-.9.9.4.9.9.9.9-.4.9-.9Z"/><path  d="M91.8,31.3c0-.5-.4-.9-.9-.9s-.9.4-.9.9.4.9.9.9.9-.4.9-.9Z"/><path  d="M95.4,31.3c0-.5-.4-.9-.9-.9s-.9.4-.9.9.4.9.9.9.9-.4.9-.9Z"/><path  d="M98.2,32.2c.5,0,.9-.4.9-.9s-.4-.9-.9-.9-.9.4-.9.9.4.9.9.9Z"/><path  d="M102.2,32.2c.5,0,.9-.4.9-.9s-.4-.9-.9-.9-.9.4-.9.9.4.9.9.9Z"/><path  d="M79.7,36.1c.5,0,.9-.4.9-.9s-.4-.9-.9-.9-.9.4-.9.9.4.9.9.9Z"/><path  d="M83.6,36.1c.5,0,.9-.4.9-.9s-.4-.9-.9-.9-.9.4-.9.9.4.9.9.9Z"/><path  d="M87.5,36.1c.5,0,.9-.4.9-.9s-.4-.9-.9-.9-.9.4-.9.9.4.9.9.9Z"/><path  d="M91.2,36.1c.5,0,.9-.4.9-.9s-.4-.9-.9-.9-.9.4-.9.9.4.9.9.9Z"/><path  d="M94.8,36.1c.5,0,.9-.4.9-.9s-.4-.9-.9-.9-.9.4-.9.9.4.9.9.9Z"/><path  d="M99.3,35.2c0-.5-.4-.9-.9-.9s-.9.4-.9.9.4.9.9.9.9-.4.9-.9Z"/><path  d="M102.4,24.5c.5,0,.9-.4.9-.9s-.4-.9-.9-.9-.9.4-.9.9.4.9.9.9Z"/><path  d="M102.4,34.3c-.5,0-.9.4-.9.9s.4.9.9.9.9-.4.9-.9-.4-.9-.9-.9Z"/><path  d="M80,39.9c.5,0,.9-.4.9-.9s-.4-.9-.9-.9-.9.4-.9.9.4.9.9.9Z"/><path  d="M83.9,39.9c.5,0,.9-.4.9-.9s-.4-.9-.9-.9-.9.4-.9.9.4.9.9.9Z"/><path  d="M87.8,39.9c.5,0,.9-.4.9-.9s-.4-.9-.9-.9-.9.4-.9.9.4.9.9.9Z"/><path  d="M91.4,39.9c.5,0,.9-.4.9-.9s-.4-.9-.9-.9-.9.4-.9.9.4.9.9.9Z"/><path  d="M95,39.9c.5,0,.9-.4.9-.9s-.4-.9-.9-.9-.9.4-.9.9.4.9.9.9Z"/><path  d="M98.5,20.8c.5,0,.9-.4.9-.9s-.4-.9-.9-.9-.9.4-.9.9.4.9.9.9Z"/><path  d="M98.5,40.1c.5,0,.9-.4.9-.9s-.4-.9-.9-.9-.9.4-.9.9.4.9.9.9Z"/><path  d="M88,43.8c.5,0,.9-.4.9-.9s-.4-.9-.9-.9-.9.4-.9.9.4.9.9.9Z"/><path  d="M95.2,43.8c.5,0,.9-.4.9-.9s-.4-.9-.9-.9-.9.4-.9.9.4.9.9.9Z"/></g></svg>